<svg width="432" height="432" xmlns="http://www.w3.org/2000/svg" data-name="Calque 1">
 <g id="Layer_1">
  <title>Layer 1</title>
  <text font-style="normal" font-weight="normal" xml:space="preserve" text-anchor="start" font-family="'Great Vibes'" font-size="60" stroke-width="0" id="svg_1" y="125" x="112" fill="#263b5e">Happy</text>
  <text transform="matrix(0.967811, 0, 0, 0.967246, 3.50865, 5.41388)" font-style="normal" font-weight="normal" xml:space="preserve" text-anchor="start" font-family="serif" font-size="55" stroke-width="0" id="svg_2" y="214" x="109" fill="#d2ba34">Joymass</text>
  <text font-style="normal" font-weight="normal" xml:space="preserve" text-anchor="start" font-family="'Playball'" font-size="50" stroke-width="0" id="svg_3" y="289" x="146" fill="#263b5e">2021</text>
  <path id="svg_7" d="m201.52312,325.87101c-4.99147,0 -9.03399,3.69548 -9.03399,8.25845c0,4.55982 4.04252,8.2574 9.03399,8.2574c4.98688,0 9.0317,-3.69758 9.0317,-8.2574c0.00115,-4.56297 -4.04252,-8.25845 -9.0317,-8.25845zm0,14.41898c-3.72238,-0.00839 -6.73103,-2.75876 -6.74021,-6.15948c0.00803,-3.40177 3.01783,-6.15319 6.74021,-6.16158c3.72008,0.00839 6.72874,2.75981 6.73677,6.16158c-0.00803,3.40072 -3.01669,6.15109 -6.73677,6.15948zm0,-14.97178c0.63455,0 1.14747,-0.46993 1.14747,-1.05001l0,-5.0885c-0.00229,-0.58007 -0.51406,-1.04896 -1.14747,-1.04896c-0.63455,0 -1.14861,0.47098 -1.14747,1.05106l0,5.08745c0,0.57798 0.51292,1.04896 1.14747,1.04896zm3.68681,0.66924c0.14343,0.05559 0.2926,0.07972 0.43833,0.08077c0.4521,0 0.87781,-0.24441 1.06141,-0.64826l2.1297,-4.70248c0.24097,-0.53602 -0.03557,-1.14861 -0.62078,-1.36994c-0.58635,-0.22133 -1.25762,0.03252 -1.50088,0.56749l-2.12855,4.70353c-0.24212,0.53497 0.03557,1.14861 0.62078,1.36889zm3.12684,1.91015c0.22376,0.2035 0.51751,0.30734 0.81126,0.30734s0.5875,-0.1028 0.81126,-0.30734l3.93581,-3.60107c0.44866,-0.40909 0.44751,-1.07308 0,-1.48428c-0.44981,-0.40909 -1.17615,-0.40909 -1.62366,0.0021l-3.93466,3.59898c-0.44866,0.41014 -0.44866,1.07413 0,1.48428zm2.09183,2.85736c0.1813,0.40385 0.6093,0.64721 1.05911,0.64721c0.14573,0 0.2949,-0.02622 0.43948,-0.08182l5.14064,-1.94792c0.58635,-0.22133 0.86404,-0.83602 0.62078,-1.37099s-0.91338,-0.78882 -1.49974,-0.56644l-5.14179,1.94792c-0.58521,0.22238 -0.86175,0.83707 -0.61848,1.37204zm7.4459,2.31925l-5.56635,0.00105c-0.6334,0 -1.14747,0.46993 -1.14517,1.05001c0,0.58007 0.51292,1.04791 1.14517,1.04791l5.5675,-0.0021c0.63455,0 1.14632,-0.47098 1.14632,-1.04896c0,-0.58007 -0.51406,-1.05001 -1.14747,-1.04791zm-0.80093,5.79864l-5.14294,-1.94477c-0.5875,-0.22238 -1.25877,0.03147 -1.49974,0.56749c-0.24212,0.53602 0.03557,1.14966 0.62078,1.37204l5.14294,1.94477c0.14458,0.0535 0.29375,0.07867 0.43948,0.07867c0.45095,0 0.87781,-0.24336 1.06141,-0.64721c0.24097,-0.53602 -0.03787,-1.15071 -0.62193,-1.37099zm-7.1074,1.48218c-0.44866,-0.41014 -1.17386,-0.41014 -1.62252,0.00105c-0.44866,0.40909 -0.44751,1.07204 0,1.48218l3.9404,3.59688c0.22376,0.20455 0.51636,0.30734 0.81011,0.30734s0.58865,-0.1028 0.81241,-0.30734c0.44866,-0.41119 0.44636,-1.07518 0,-1.48428l-3.9404,-3.59583zm-3.24847,2.47869c-0.24212,-0.53602 -0.91338,-0.78882 -1.49974,-0.56749c-0.58521,0.22238 -0.86289,0.83602 -0.61963,1.37204l2.13429,4.69933c0.18245,0.40385 0.6093,0.64721 1.06141,0.64721c0.14688,0 0.29605,-0.02518 0.43948,-0.07972c0.58635,-0.22133 0.86289,-0.83602 0.61963,-1.37309l-2.13543,-4.69828zm-5.1831,0.10804c-0.63455,0 -1.14747,0.46993 -1.14747,1.04896l0.00459,5.0885c0,0.58007 0.51521,1.04791 1.14747,1.04791c0.63455,0 1.14747,-0.46993 1.14517,-1.04896l-0.00344,-5.08955c0,-0.57693 -0.51521,-1.04791 -1.14632,-1.04686zm-3.69025,-0.66714c-0.58521,-0.22028 -1.25533,0.03252 -1.49859,0.56958l-2.12511,4.70248c-0.24097,0.53602 0.03787,1.14966 0.62307,1.37099c0.14343,0.05455 0.29146,0.07972 0.43833,0.07972c0.44981,0 0.87781,-0.24546 1.06026,-0.64931l2.12625,-4.70458c0.24212,-0.53497 -0.03787,-1.14756 -0.62422,-1.36889zm-3.12799,-1.90596c-0.44981,-0.41014 -1.17615,-0.40804 -1.62366,0.0021l-3.93122,3.60107c-0.44866,0.41119 -0.44636,1.07308 0.00229,1.48428c0.22376,0.2035 0.51636,0.3063 0.81011,0.3063c0.2949,0 0.58865,-0.1028 0.81241,-0.30734l3.93236,-3.60212c0.44636,-0.41014 0.44636,-1.07413 -0.00229,-1.48428zm-2.09298,-2.85422c-0.24441,-0.53392 -0.91453,-0.78777 -1.49974,-0.56644l-5.1395,1.95211c-0.58635,0.22238 -0.86289,0.83707 -0.61963,1.37204c0.18359,0.40385 0.6093,0.64616 1.06026,0.64616c0.14573,0 0.29605,-0.02518 0.43948,-0.07972l5.1395,-1.95211c0.58406,-0.22448 0.86175,-0.83812 0.61963,-1.37204zm-0.74126,-3.36925c0,-0.58007 -0.51292,-1.04791 -1.14747,-1.04791l-5.56635,0.00629c-0.63455,0 -1.14861,0.46993 -1.14632,1.05001c0.00115,0.57798 0.51521,1.04896 1.14747,1.04686l5.5675,-0.00629c0.6334,0 1.14747,-0.47203 1.14517,-1.04896zm-5.91633,-4.74444l5.14638,1.94057c0.14343,0.05559 0.29146,0.07972 0.43718,0.07972c0.45095,0 0.87896,-0.24336 1.06141,-0.64826c0.24326,-0.53602 -0.03672,-1.15071 -0.62422,-1.36994l-5.14409,-1.94057c-0.58635,-0.22028 -1.25647,0.03357 -1.49859,0.56854c-0.24326,0.53602 0.03787,1.14756 0.62193,1.36994zm7.10625,-1.48742c0.22376,0.20245 0.51521,0.30525 0.80896,0.30525s0.58865,-0.1028 0.81355,-0.30944c0.44866,-0.40804 0.44636,-1.07308 -0.00459,-1.48323l-3.9404,-3.59163c-0.44751,-0.40909 -1.17615,-0.407 -1.62252,0.00315c-0.44866,0.40909 -0.44636,1.07413 0.00229,1.48323l3.94269,3.59268zm3.24388,-2.48288c0.18359,0.4028 0.61045,0.64511 1.05911,0.64511c0.14688,0 0.29605,-0.02622 0.44063,-0.08077c0.58521,-0.22238 0.86404,-0.83707 0.61963,-1.37099l-2.13888,-4.69828c-0.24326,-0.53497 -0.91568,-0.78777 -1.50088,-0.56539c-0.58521,0.22343 -0.86175,0.83812 -0.61848,1.37204l2.13888,4.69828z" stroke-width="0" fill="#d2ba34"/>
 </g>
</svg>